<?xml version="1.0" encoding="UTF-8" standalone="no"?>
<!-- Created with Inkscape (http://www.inkscape.org/) -->

<svg
   width="150"
   height="150"
   viewBox="0 0 39.687499 39.6875"
   version="1.1"
   id="svg367"
   inkscape:version="1.2.2 (b0a84865, 2022-12-01)"
   sodipodi:docname="logo.svg"
   xmlns:inkscape="http://www.inkscape.org/namespaces/inkscape"
   xmlns:sodipodi="http://sodipodi.sourceforge.net/DTD/sodipodi-0.dtd"
   xmlns="http://www.w3.org/2000/svg"
   xmlns:svg="http://www.w3.org/2000/svg">
  <sodipodi:namedview
     id="namedview369"
     pagecolor="#ffffff"
     bordercolor="#000000"
     borderopacity="0.25"
     inkscape:showpageshadow="2"
     inkscape:pageopacity="0.0"
     inkscape:pagecheckerboard="0"
     inkscape:deskcolor="#d1d1d1"
     inkscape:document-units="mm"
     showgrid="false"
     inkscape:zoom="1.0879071"
     inkscape:cx="-96.975191"
     inkscape:cy="64.343729"
     inkscape:window-width="1440"
     inkscape:window-height="872"
     inkscape:window-x="0"
     inkscape:window-y="0"
     inkscape:window-maximized="1"
     inkscape:current-layer="layer1" />
  <defs
     id="defs364">
    <clipPath
       clipPathUnits="userSpaceOnUse"
       id="clipPath615">
      <rect
         style="fill:#000000;stroke-width:1.323"
         id="rect617"
         width="39.6875"
         height="39.6875"
         x="-39.6875"
         y="-35.476692" />
    </clipPath>
  </defs>
  <g
     inkscape:label="Layer 1"
     inkscape:groupmode="layer"
     id="layer1">
    <g
       id="g625"
       transform="translate(90.394585,25.948563)">
      <circle
         style="fill:#5fbcd3;stroke-width:1.323"
         id="path555"
         cx="-70.550835"
         cy="-6.1048126"
         r="19.84375" />
      <path
         id="rect619"
         style="fill:#ffffff;stroke-width:1.323"
         d="m -65.670275,-19.333251 c -1.747974,0.03063 -3.312349,1.021903 -5.057884,0.895387 -1.919936,-0.139186 -3.518329,-1.141447 -5.533411,-0.836318 -2.063571,0.312482 -3.377706,2.513193 -3.521305,4.520251 -0.237709,3.320215 1.076391,6.1389247 1.765217,9.2935137 0.480343,2.199881 0.403916,4.53856105 0.77045,6.773239 0.268556,1.6373937 0.595647,4.2480335 1.835345,5.4451717 1.188864,1.1481487 2.032013,-0.6810582 2.275806,-1.6647597 0.539034,-2.1746675 0.230807,-4.48230975 0.978434,-6.615721 0.233337,-0.666134 0.862442,-1.963743 1.736876,-1.771577 0.79481,0.174526 1.255093,1.227354 1.481821,1.929093 0.627573,1.94217975 0.429684,4.0029808 0.824248,5.9856534 0.169832,0.8540699 0.552634,2.590834 1.688362,2.4754809 1.211356,-0.1230115 1.663159,-2.1324118 1.934292,-3.1055497 0.921163,-3.30834715 0.616566,-6.8176656 1.514963,-10.0810996 0.95729,-3.476949 3.936525,-11.5634827 -1.449158,-13.0852477 -0.427399,-0.120765 -0.840678,-0.164586 -1.244056,-0.157517 z" />
    </g>
  </g>
</svg>
