<?xml version="1.0" encoding="UTF-8" standalone="no"?>
<!-- Created with Inkscape (http://www.inkscape.org/) -->

<svg
   width="150"
   height="149.99995"
   viewBox="0 0 39.687502 39.687488"
   version="1.1"
   id="svg190"
   sodipodi:docname="logo.svg"
   inkscape:export-filename="/home/sarmad/Projects/MyLogos/newlogo2.png"
   inkscape:export-xdpi="99.951103"
   inkscape:export-ydpi="99.951103"
   inkscape:version="1.2.2 (b0a84865, 2022-12-01)"
   xmlns:inkscape="http://www.inkscape.org/namespaces/inkscape"
   xmlns:sodipodi="http://sodipodi.sourceforge.net/DTD/sodipodi-0.dtd"
   xmlns="http://www.w3.org/2000/svg"
   xmlns:svg="http://www.w3.org/2000/svg">
  <sodipodi:namedview
     id="namedview192"
     pagecolor="#ffffff"
     bordercolor="#666666"
     borderopacity="1.0"
     inkscape:pageshadow="2"
     inkscape:pageopacity="0.0"
     inkscape:pagecheckerboard="0"
     inkscape:document-units="px"
     showgrid="true"
     units="px"
     inkscape:snap-bbox="true"
     inkscape:bbox-paths="false"
     inkscape:bbox-nodes="false"
     inkscape:object-nodes="true"
     inkscape:object-paths="true"
     inkscape:snap-midpoints="false"
     inkscape:snap-page="true"
     showguides="true"
     inkscape:guide-bbox="true"
     inkscape:zoom="1.2063693"
     inkscape:cx="352.71124"
     inkscape:cy="5.8025351"
     inkscape:window-width="1440"
     inkscape:window-height="872"
     inkscape:window-x="0"
     inkscape:window-y="0"
     inkscape:window-maximized="1"
     inkscape:current-layer="layer1"
     inkscape:snap-smooth-nodes="true"
     inkscape:snap-intersection-paths="true"
     inkscape:showpageshadow="2"
     inkscape:deskcolor="#d1d1d1" />
  <defs
     id="defs187" />
  <g
     inkscape:label="Layer 1"
     inkscape:groupmode="layer"
     id="layer1"
     transform="translate(96.114412,-21.859799)">
    <g
       id="g1071"
       transform="translate(-90.090627,3.3072865)">
      <path
         d="m 3.4615504,20.536882 v 0.47625 q -0.80963,0.02381 -1.23825,0.1905 -0.40481,0.142875 -0.54769,0.5715 -0.14287,0.404813 -0.14287,1.285875 v 12.096749 q 0,0.73819 0.0952,1.09538 0.11906,0.35718 0.42862,0.47625 0.33338,0.11906 0.97631,0.11906 h 1.16682 q 0.80962,0 1.524,-0.381 0.71437,-0.381 1.28587,-1.07156 0.5715,-0.71438 0.9525,-1.69069 0.381,-0.97631 0.5715,-2.16694 h 0.54769 q -0.0714,0.80963 -0.0714,2.0955 0,0.54769 0.0238,1.59544 0.0238,1.04775 0.14288,2.16694 -1.21444,-0.0476 -2.73844,-0.0476 -1.524,-0.0238 -2.71462,-0.0238 -0.59532,0 -1.524,0 -0.92869,0 -2.00025004,0.0238 -1.07157,0 -2.16693996,0.0238 -1.09538,0 -2.07169,0.0238 v -0.47625 q 0.762,-0.0476 1.143,-0.1905 0.381,-0.14288 0.50006,-0.5715 0.14288,-0.42863 0.14288,-1.28588 V 23.061007 q 0,-0.881062 -0.14288,-1.285875 -0.11906,-0.428625 -0.52387,-0.5715 -0.381,-0.166687 -1.11919,-0.1905 v -0.47625 q 0.59531,0.02381 1.59544,0.04763 1.02394,0.02381 2.16693996,0.02381 1.04775,0 2.04787004,-0.02381 1.02394,-0.02381 1.69069,-0.04763 z"
         id="path953"
         style="font-weight:bold;font-size:23.8125px;font-family:'Playfair Display';-inkscape-font-specification:'Playfair Display Bold';text-align:center;text-anchor:middle;fill:#f8f9fa;stroke-width:1.323" />
      <path
         d="m 23.273526,20.536882 q 2.524126,0 4.405314,1.023938 1.905,1.023937 2.95275,2.95275 1.04775,1.905 1.04775,4.643437 0,2.667004 -1.071563,4.667254 -1.071562,2.00025 -3.000375,3.11943 -1.905,1.11919 -4.357686,1.11919 -2.52413,0 -4.42913,-1.02394 -1.88118,-1.02393 -2.92893,-2.95275 -1.04775,-1.92881 -1.04775,-4.643434 0,-2.667 1.07156,-4.66725 1.09537,-2.00025 2.97656,-3.119437 1.905,-1.119188 4.3815,-1.119188 z m -0.0952,0.428625 q -1.3335,0 -2.33362,1.071563 -0.97632,1.071562 -1.524,2.95275 -0.52388,1.881187 -0.52388,4.357687 0,2.524124 0.59531,4.405314 0.61913,1.85737 1.64307,2.88131 1.04775,1.00013 2.30981,1.00013 1.333499,0 2.309811,-1.07157 1.000125,-1.07156 1.524,-2.95275 0.547688,-1.905 0.547688,-4.357684 0,-2.547937 -0.619125,-4.405312 -0.595313,-1.857375 -1.643063,-2.8575 -1.023937,-1.023938 -2.286001,-1.023938 z"
         id="path955"
         style="font-weight:bold;font-size:23.8125px;font-family:'Playfair Display';-inkscape-font-specification:'Playfair Display Bold';text-align:center;text-anchor:middle;fill:#f8f9fa;stroke-width:1.323" />
      <path
         d="m 4.5807174,38.729682 q 1.61925,0 2.643188,0.45244 1.023937,0.45244 1.833562,1.09537 0.28575,0.21432 0.47625,0.21432 0.452438,0 0.5953126,-1.42875 h 0.547687 q -0.04762,0.92868 -0.07144,2.26218 -0.02381,1.30969 -0.02381,3.50044 H 10.03378 q -0.1666876,-1.42875 -0.5238746,-2.4765 -0.333375,-1.07156 -1.262063,-1.83356 -0.5715,-0.54769 -1.42875,-0.85725 -0.833437,-0.30956 -1.690687,-0.30956 -1.309688,0 -2.238375,0.69056 -0.928688,0.66675 -1.524,1.83356 -0.59531304,1.16681 -0.88106304,2.64319 -0.28575,1.45256 -0.28575,3.02419 0,4.28625 1.16681304,6.26268 1.190625,1.97644 3.405187,1.97644 0.5715,0 1.000125,-0.14287 0.428625,-0.14288 0.690563,-0.33338 0.333375,-0.23812 0.452437,-0.50006 0.119063,-0.28575 0.119063,-0.73819 v -2.33362 q 0,-1.09538 -0.1905,-1.61925 -0.166688,-0.54769 -0.690563,-0.73819 -0.523875,-0.1905 -1.524,-0.21431 v -0.47625 q 0.500063,0.0238 1.190625,0.0476 0.714375,0 1.476375,0.0238 0.762,0 1.404938,0 1.000125,0 1.8335616,-0.0238 0.833438,-0.0238 1.357313,-0.0476 v 0.47625 q -0.452438,0.0238 -0.690563,0.16668 -0.214312,0.14288 -0.309562,0.5715 -0.07144,0.42863 -0.07144,1.30969 v 4.71488 h -0.47625 q -0.02381,-0.40482 -0.1905,-0.88107 -0.142875,-0.47625 -0.5000616,-0.47625 -0.166688,0 -0.452438,0.0952 -0.261937,0.0714 -0.833437,0.40482 -0.881063,0.50006 -1.857375,0.85725 -0.976313,0.33337 -2.047875,0.33337 -2.76225,0 -4.66725004,-1.02394 -1.90499996,-1.02393 -2.88131296,-2.92893 -0.9525,-1.92882 -0.9525,-4.61963 0,-2.71462 1.095375,-4.71487 1.119188,-2.00025 3.04799996,-3.11944 1.95262504,-1.11919 4.47675004,-1.11919 z"
         id="path957"
         style="font-weight:bold;font-size:23.8125px;font-family:'Playfair Display';-inkscape-font-specification:'Playfair Display Bold';text-align:center;text-anchor:middle;fill:#f8f9fa;stroke-width:1.323" />
      <path
         d="m 23.273528,38.729632 q 2.524125,0 4.405312,1.023938 1.905,1.023932 2.95275,2.952752 1.04775,1.905 1.04775,4.64343 0,2.66701 -1.071562,4.66726 -1.071563,2.00025 -3.000375,3.11943 -1.905,1.11919 -4.357688,1.11919 -2.524125,0 -4.429125,-1.02394 -1.881187,-1.02393 -2.928937,-2.95275 -1.04775,-1.92881 -1.04775,-4.64344 0,-2.667 1.071562,-4.66724 1.095375,-2.00025 2.976563,-3.119442 1.905,-1.119188 4.3815,-1.119188 z m -0.09525,0.428625 q -1.3335,0 -2.333625,1.071565 -0.976313,1.07156 -1.524,2.95275 -0.523875,1.88118 -0.523875,4.35768 0,2.52413 0.595312,4.40532 0.619125,1.85737 1.643063,2.88131 1.04775,1.00013 2.309812,1.00013 1.3335,0 2.309813,-1.07157 1.000125,-1.07156 1.524,-2.95275 0.547687,-1.905 0.547687,-4.35769 0,-2.54793 -0.619125,-4.40531 -0.595312,-1.85737 -1.643062,-2.8575 -1.023938,-1.023935 -2.286,-1.023935 z"
         id="path959"
         style="font-weight:bold;font-size:23.8125px;font-family:'Playfair Display';-inkscape-font-specification:'Playfair Display Bold';text-align:center;text-anchor:middle;fill:#f8f9fa;stroke-width:1.323" />
    </g>
  </g>
</svg>
