<?xml version="1.0" encoding="UTF-8" standalone="no"?>
<!-- Created with Inkscape (http://www.inkscape.org/) -->

<svg
   width="150"
   height="149.99995"
   viewBox="0 0 39.687502 39.687488"
   version="1.1"
   id="svg190"
   sodipodi:docname="logo.svg"
   inkscape:export-filename="/home/sarmad/Projects/MyLogos/newlogo2.png"
   inkscape:export-xdpi="99.951103"
   inkscape:export-ydpi="99.951103"
   inkscape:version="1.2.2 (b0a84865, 2022-12-01)"
   xmlns:inkscape="http://www.inkscape.org/namespaces/inkscape"
   xmlns:sodipodi="http://sodipodi.sourceforge.net/DTD/sodipodi-0.dtd"
   xmlns="http://www.w3.org/2000/svg"
   xmlns:svg="http://www.w3.org/2000/svg">
  <sodipodi:namedview
     id="namedview192"
     pagecolor="#ffffff"
     bordercolor="#666666"
     borderopacity="1.0"
     inkscape:pageshadow="2"
     inkscape:pageopacity="0.0"
     inkscape:pagecheckerboard="0"
     inkscape:document-units="px"
     showgrid="true"
     units="px"
     inkscape:snap-bbox="true"
     inkscape:bbox-paths="false"
     inkscape:bbox-nodes="false"
     inkscape:object-nodes="true"
     inkscape:object-paths="true"
     inkscape:snap-midpoints="false"
     inkscape:snap-page="true"
     showguides="true"
     inkscape:guide-bbox="true"
     inkscape:zoom="1"
     inkscape:cx="238.5"
     inkscape:cy="135.5"
     inkscape:window-width="1440"
     inkscape:window-height="847"
     inkscape:window-x="0"
     inkscape:window-y="25"
     inkscape:window-maximized="1"
     inkscape:current-layer="layer1"
     inkscape:snap-smooth-nodes="true"
     inkscape:snap-intersection-paths="true"
     inkscape:showpageshadow="2"
     inkscape:deskcolor="#d1d1d1" />
  <defs
     id="defs187" />
  <g
     inkscape:label="Layer 1"
     inkscape:groupmode="layer"
     id="layer1"
     transform="translate(96.114412,-21.859799)">
    <path
       style="color:#000000;fill:#f8f9fa;fill-opacity:1;stroke:none;stroke-width:0.20273;stroke-linecap:round;stroke-linejoin:round;-inkscape-stroke:none"
       d="m -76.260782,21.859798 c -5.023355,-2e-6 -9.118479,4.095119 -9.118479,9.118476 8e-6,5.011616 4.076801,9.102162 9.088386,9.118872 a 1.072774,1.072774 0 0 0 0.02376,-0.0099 1.072774,1.072774 0 0 0 0.0099,0.0044 c 3.854581,0.0129 6.949823,3.118579 6.949823,6.973186 -3e-6,0.884958 -0.168223,1.761647 -0.496134,2.583614 a 1.072774,1.072774 0 0 0 0.598687,1.393766 1.072774,1.072774 0 0 0 1.394161,-0.598686 c 0.428795,-1.074853 0.648972,-2.221466 0.648972,-3.378694 3e-6,-5.011617 -4.076794,-9.101764 -9.088384,-9.118477 a 1.072774,1.072774 0 0 0 -0.0194,0.008 1.072774,1.072774 0 0 0 -0.01425,-0.0029 c -3.854584,-0.0129 -6.949824,-3.11858 -6.949824,-6.973185 0,-3.863818 3.108971,-6.972791 6.972789,-6.972791 3.67183,10e-7 6.699112,2.822148 6.956159,6.484971 a 1.072774,1.072774 0 0 0 1.145106,0.995039 1.072774,1.072774 0 0 0 0.995037,-1.145502 c -0.334493,-4.766414 -4.31812,-8.480148 -9.096299,-8.48015 z m -0.0099,10.722494 c -1.344161,0 -2.681656,0.187054 -3.974212,0.555924 a 1.072774,1.072774 0 0 0 -0.73727,1.326057 1.072774,1.072774 0 0 0 1.326057,0.73727 c 1.10107,-0.314223 2.240397,-0.473958 3.385425,-0.473958 6.826204,0 12.337203,5.510998 12.337206,12.337205 0,3.025794 -1.086393,5.789891 -2.886523,7.933378 l -7.082864,-7.082865 a 1.0728813,1.0728813 0 0 0 -1.516909,1.517304 l 7.082867,7.082469 c -2.143514,1.800223 -4.907896,2.886523 -7.933777,2.886521 -6.826209,3e-6 -12.336811,-5.5106 -12.336811,-12.336807 0,-3.369347 1.377245,-6.590983 3.81306,-8.918916 a 1.072774,1.072774 0 0 0 0.03447,-1.516908 1.072774,1.072774 0 0 0 -1.516507,-0.03405 c -2.858696,2.732076 -4.476685,6.515591 -4.476685,10.469877 0,7.985746 6.49675,14.482497 14.482499,14.482495 3.607449,0 6.90347,-1.33452 9.441577,-3.524407 l 3.113008,3.113008 a 1.0728813,1.0728813 0 0 0 1.782593,-0.486631 1.0728813,1.0728813 0 0 0 -0.265685,-1.030278 l -3.113015,-3.113008 c 2.189889,-2.538106 3.524011,-5.833732 3.524011,-9.441179 -10e-7,-7.985745 -6.496752,-14.482498 -14.482495,-14.482498 z m -8.110769,13.975672 a 1.072774,1.072774 0 0 0 -0.995039,1.145106 c 0.334502,4.766459 4.318126,8.480195 9.096307,8.480195 1.119835,0 2.229847,-0.20636 3.274952,-0.608585 a 1.072774,1.072774 0 0 0 0.616108,-1.386242 1.072774,1.072774 0 0 0 -1.386639,-0.616108 c -0.799215,0.307589 -1.64806,0.465248 -2.504421,0.465248 -3.671834,0 -6.699118,-2.821752 -6.956163,-6.484575 a 1.072774,1.072774 0 0 0 -1.145105,-0.995039 z"
       id="path8951" />
  </g>
</svg>
